<?xml version="1.0"?>
<!DOCTYPE svg PUBLIC "-//W3C//DTD SVG 1.1//EN" "http://www.w3.org/Graphics/SVG/1.1/DTD/svg11.dtd">
<svg width="14.047793207332614mm" height="35.829503263856296mm" viewBox="0 0 14.047793207332614 35.829503263856296" xmlns="http://www.w3.org/2000/svg" version="1.1">
<g id="Sketch" transform="translate(2.614469,35.691780) scale(1,-1)">
<path id="Sketch_w0000"  d="M 6.042823521097116 0.5000000000000002 L 7.774874328665992 3.5 A 1 1 0 0 0 9.50693 2.5L 8.929574867045243 1.5 A 1 1 0 0 1 9.7956 0L 10.29560027082968 0.0 A 1 1 0 0 1 11.2956 1L 11.29560027082968 34.56 A 1 1 0 0 1 9.32967 34.8188L 2.920962633410314 10.90118095489748 A 1 1 0 0 0 0.955037 11.16A 1 1 0 0 1 -0.809349 11.8048A 7.1772 7.1772 0 0 1 4.6768 0L 5.176798117312677 -1.07183698404173e-25 A 1 1 0 0 1 6.04282 0.5" stroke="#f1f3f5" stroke-width="0.7 px" style="stroke-width:0.7;stroke-miterlimit:4;stroke-dasharray:none;stroke-linecap:square;fill:none;fill-opacity:1;fill-rule: evenodd"/>
<title>b'Sketch'</title>
</g>
</svg>