<?xml version="1.0"?>
<!DOCTYPE svg PUBLIC "-//W3C//DTD SVG 1.1//EN" "http://www.w3.org/Graphics/SVG/1.1/DTD/svg11.dtd">
<svg width="36.053279820528mm" height="36.26613142553066mm" viewBox="0 0 36.053279820528 36.26613142553066" xmlns="http://www.w3.org/2000/svg" version="1.1">
<g id="Sketch" transform="translate(0.699816,35.912668) scale(1,-1)">
<path id="Sketch_w0000"  d="M 9.116036999999757 0.0 L 20.343145750507613 0.0 A 1 1 0 0 1 21.0503 0.292893L 25.96446609406726 5.207106781186546 A 1 1 0 0 0 27.3787 3.79289L 25.29289321881345 1.7071067811865483 A 1 1 0 0 1 26 0L 34.0 0.0 A 1 1 0 0 1 35 1L 35.0 24.0269429472465 A 1 1 0 0 1 34.5 24.893L 16.25621002560924 35.42602540378444 A 1 1 0 0 1 14.8357 34.9507L 4.726455000300382 11.134830194417162 A 1.6 1.6 0 0 0 1.65365 11.76A 1 1 0 1 1 -0.346353 11.76C -0.3463527652235223 4.925450999865218 0.8738480000000001 0.0 9.116036999999757 0.0 " stroke="#f1f3f5" stroke-width="0.7 px" style="stroke-width:0.7;stroke-miterlimit:4;stroke-dasharray:none;stroke-linecap:square;fill:none;fill-opacity:1;fill-rule: evenodd"/>
<title>b'Sketch'</title>
</g>
</svg>