<?xml version="1.0"?>
<!DOCTYPE svg PUBLIC "-//W3C//DTD SVG 1.1//EN" "http://www.w3.org/Graphics/SVG/1.1/DTD/svg11.dtd">
<svg width="28.05546657337945mm" height="36.10940789250172mm" viewBox="0 0 28.05546657337945 36.10940789250172" xmlns="http://www.w3.org/2000/svg" version="1.1">
<g id="Sketch" transform="translate(2.380413,35.834354) scale(1,-1)">
<path id="Sketch_w0000"  d="M 14.450252531822985 0.29289321882651653 L 18.364466093993972 4.2071067811734935 A 1 1 0 1 0 19.7787 2.79289L 18.692893218813737 1.7071067811878144 A 1 1 0 0 1 19.4 3.69815e-13L 24.40000000000044 5.140332604014475e-14 A 1 1 0 0 1 25.4 1L 25.4 30.780737482843065 A 1 1 0 0 1 24.6588 31.7467L 10.554419315932204 35.52592582628907 A 1 1 0 0 1 9.32967 34.8188L 3.04012193639638 11.345889527835967 A 1.6 1.6 0 0 0 -0.105359 11.76A 1 1 0 0 1 -2.10536 11.76A 11.76 11.76 0 0 1 9.65464 0L 13.743145750623333 0.0 A 1 1 0 0 1 14.4503 0.292893" stroke="#f1f3f5" stroke-width="0.7 px" style="stroke-width:0.7;stroke-miterlimit:4;stroke-dasharray:none;stroke-linecap:square;fill:none;fill-opacity:1;fill-rule: evenodd"/>
<title>b'Sketch'</title>
</g>
</svg>